PathFileType	4	(X/Y/Z)	C:/Users/beibeiliu/ov580/test_trc/User2\sequence.40_training_dense_right.trc
DataRate	CameraRate	NumFrames	NumMarkers	Units	OrigDataRate	OrigDataStartFrame	OrigNumFrames
120	120	20	19	mm	120	114	198
Frame#	Time	ThumbCMC			ThumbMCP			ThumbIP			ThumbTip			IndexMCP			IndexPIP			IndexTip			MiddleMCP			MiddlePIP			MiddleTip			RingMCP			RingPIP			RingTip			PinkyMCP			PinkyPIP			PinkyTip			BackHand1			BackHand2			BackHand3	
		X0	Y0	Z0	X1	Y1	Z1	X2	Y2	Z2	X3	Y3	Z3	X4	Y4	Z4	X5	Y5	Z5	X6	Y6	Z6	X7	Y7	Z7	X8	Y8	Z8	X9	Y9	Z9	X10	Y10	Z10	X11	Y11	Z11	X12	Y12	Z12	X13	Y13	Z13	X14	Y14	Z14	X15	Y15	Z15	X16	Y16	Z16	X17	Y17	Z17	X18	Y18	Z18	
113	0.941667	101.206	68.2559	1.01477	83.5896	87.9172	-21.0198	60.3861	89.1092	-52.2791	40.6486	76.5047	-66.4408	57.6066	48.7207	-68.7012	29.0548	56.3862	-54.7727	50.6459	55.1364	-21.3319	47.753	26.9801	-63.3105	23.6923	35.2696	-35.2587	50.0096	40.6333	-11.0509	39.0833	14.6835	-51.053	24.6608	20.4865	-23.2372	60.4935	25.3853	-8.29209	38.3326	-2.96468	-36.959	32.0912	14.7981	-9.76439	59.1166	13.4465	4.4556	98.1758	1.14748	-32.6933	117.414	1.89744	2.25037	115.417	36.1828	-16.0098	
114	0.95	94.3279	68.6181	0.446238	74.4254	84.8573	-17.2211	50.7453	85.7098	-42.6553	31.3513	74.7916	-63.3108	54.2408	51.8549	-67.2963	26.7285	54.3348	-50.5163	47.5656	55.3121	-20.6643	43.9553	27.9872	-63.5073	21.8189	37.2818	-38.7215	47.9765	41.882	-9.5485	37.8188	15.6793	-51.342	24.7714	21.8228	-21.2012	54.6325	24.2066	-5.73296	39.4405	-5.29725	-37.9825	30.985	11.8088	-7.92045	58.2628	12.6604	5.26088	100.521	1.23351	-29.5844	117.712	4.9205	-3.50096	113.745	39.5449	-15.1221	
115	0.958333	91.5896	69.4041	6.0658	66.0702	86.253	-13.9649	40.6744	86.8031	-38.6916	22.2536	72.9082	-55.5262	54.0935	51.3564	-65.8518	24.6753	55.179	-48.6011	48.0966	59.0579	-19.2476	44.3877	32.5001	-63.3959	19.799	35.2814	-33.1673	49.6092	43.6929	-6.75811	39.8669	11.7968	-49.489	23.4398	22.8977	-23.3551	54.7431	24.4053	-4.48962	39.8128	-0.987328	-37.3957	32.2555	13.3712	-8.73837	59.0052	16.7187	4.04745	99.3531	4.14979	-29.3076	116.786	5.46665	-0.249005	113.657	37.8063	-18.0573	
116	0.966667	89.1283	66.2148	2.36711	61.176	83.7535	-13.5784	33.4472	85.8694	-37.7438	16.7897	73.0387	-51.2858	52.6117	54.0687	-65.7464	23.908	57.6502	-45.8691	49.8781	53.9684	-19.3099	42.4726	35.8227	-63.5315	19.7992	35.7898	-33.7653	47.2846	39.7559	-6.405	35.5648	16.4525	-48.7938	22.6332	22.0086	-21.6634	52.956	26.0872	-4.52915	39.3143	1.75182	-38.1551	29.3853	11.776	-10.328	60.4022	18.0094	3.1359	97.3406	6.6835	-33.9662	119.341	6.20357	0.0743835	114.879	41.3381	-16.0437	
117	0.975	87.21	66.1556	3.02911	58.4025	84.8346	-10.343	31.6031	79.6238	-33.3538	11.4716	67.5406	-51.292	48.7254	59.1114	-65.7825	24.3026	58.8101	-45.8434	48.8576	54.9438	-18.8623	42.8745	35.705	-63.2013	18.7569	39.3017	-39.7288	45.8231	41.1833	-6.7986	35.861	14.7288	-48.6746	23.6099	23.0247	-21.9637	56.9818	28.9192	-4.23707	36.344	0.0847008	-36.2964	29.6032	12.0425	-9.36728	62.2427	17.4433	4.22137	97.4274	8.00184	-33.9619	115.968	2.75894	-0.196055	110.989	41.2032	-20.0266	
118	0.983333	88.3504	69.159	5.51985	56.8516	81.8141	-12.0941	28.4808	81.1735	-30.4449	12.3146	62.5445	-47.9453	52.0343	57.9624	-64.3937	23.4996	57.9527	-46.5358	47.7561	56.6572	-18.1329	45.7004	35.2783	-62.1444	18.5765	38.3712	-38.2578	45.9244	38.2724	-6.28718	33.5211	14.4565	-47.7759	24.7259	22.1263	-18.0379	55.676	30.144	-3.85957	41.0823	-1.51314	-37.8573	31.765	10.5799	-4.80473	58.8084	16.5977	4.85238	99.5342	5.76126	-32.1715	116.342	3.16659	-1.00647	112.348	40.316	-20.3777	
119	0.991667	89.1176	69.0722	4.20212	61.6782	86.3394	-11.8819	34.9908	82.8961	-32.1126	17.49	64.9324	-46.6226	53.3476	56.8483	-64.3637	24.7217	54.2481	-45.9796	47.0785	55.428	-18.6759	42.2219	34.47	-62.5141	19.3869	38.2545	-35.2419	45.5819	37.6931	-6.82119	38.012	16.6842	-49.2505	24.4777	22.4699	-19.0275	53.0794	29.4919	-5.22469	40.9356	-4.23415	-37.2846	31.5437	13.0133	-6.96733	59.5758	17.2155	5.37656	98.6304	7.14038	-29.7324	116.925	6.28318	-3.0601	111.292	42.6229	-17.8251	
120	1	95.4925	70.3758	4.53578	73.0604	91.5419	-16.8964	46.6305	89.2143	-38.0161	29.5121	71.5927	-51.1115	49.6495	52.3673	-65.0154	25.1959	55.8379	-46.6583	46.7354	54.9642	-18.8663	42.6901	35.769	-62.1599	20.2	36.7665	-37.1731	48.6494	40.6362	-6.53096	38.1596	14.9518	-49.3424	22.6161	21.5252	-22.6967	53.6515	26.7113	-4.5739	40.758	-4.05325	-36.4257	28.9344	10.8574	-9.25914	59.5974	16.9407	6.05124	97.6742	7.12844	-32.7645	119.204	5.80725	1.06754	114.046	39.8956	-18.5528	
121	1.00833	99.3733	69.023	2.03876	83.8353	91.2483	-15.416	58.0368	90.0619	-45.593	39.5512	73.2865	-57.6038	53.7622	49.7972	-65.0042	26.6165	56.093	-45.3699	50.7817	56.1541	-18.5254	46.8692	28.5405	-61.8107	20.9476	36.8335	-37.8948	54.0667	39.3769	-9.10059	37.9382	10.6015	-49.7405	24.7818	20.9743	-21.4977	57.2829	29.0561	-7.72016	39.279	-3.28368	-36.0335	29.5662	13.1618	-10.575	59.6144	16.2662	6.18292	98.5157	3.58568	-31.6111	115.97	1.52173	0.104428	111.85	34.9586	-19.2186	
122	1.01667	100.987	68.7853	0.645486	86.5172	90.4541	-19.6271	63.0047	89.512	-46.9436	45.431	69.9613	-59.8579	51.8981	51.8975	-66.6149	26.5101	55.2213	-46.2919	46.456	57.935	-21.0463	47.8687	29.6796	-62.9806	22.1092	34.5003	-38.2112	53.0869	41.8517	-10.5606	36.5736	10.9331	-49.7077	24.3735	22.6487	-22.7246	58.0856	26.1076	-7.63305	38.8706	0.452078	-36.531	29.6352	13.0627	-11.8857	61.3416	13.3648	5.17131	98.6394	0.277314	-32.6601	117.557	-0.548231	2.96841	116.048	38.3978	-16.6057	
123	1.025	100.052	67.3672	3.29416	83.9006	88.2922	-22.4218	62.6272	88.0776	-45.6317	40.6627	75.2472	-65.6992	53.04	52.0594	-67.29	25.752	56.027	-50.0368	50.9067	55.8405	-19.8062	45.2767	28.6042	-62.3055	22.1816	37.009	-35.9283	51.2331	42.6454	-10.8936	34.663	12.5638	-50.2996	24.3605	23.8393	-23.3303	55.7539	25.9435	-8.34679	39.2178	-5.25047	-37.2017	30.6936	11.764	-6.53917	60.0857	14.2306	6.32724	98.2116	-1.0483	-31.1303	118.295	0.0815822	1.07484	113.971	36.8814	-16.4957	
124	1.03333	95.5791	64.7407	2.05997	79.6601	84.9757	-18.2166	54.9985	87.0471	-45.9235	36.7025	73.5407	-62.3541	50.3044	51.3197	-67.4292	25.478	54.3924	-49.441	46.7522	58.6993	-21.5587	42.1619	32.8343	-63.0722	20.0371	34.2631	-37.9718	51.29	39.7463	-8.90295	35.533	10.3597	-48.7783	22.4679	20.4848	-22.3437	56.9662	27.2284	-8.42964	35.486	-4.51313	-35.4923	30.3241	10.8445	-6.4661	58.481	14.7504	4.08343	96.3023	2.33283	-31.346	117.795	3.93089	1.17473	112.982	38.8579	-17.2081	
125	1.04167	93.6834	65.8829	3.67737	71.5807	85.3437	-18.5108	47.7235	85.3129	-41.8482	28.8308	75.1395	-61.9948	52.6785	51.228	-66.1641	23.635	55.5875	-52.0352	45.646	58.4431	-20.7864	43.1488	28.6713	-61.7986	18.7424	38.9762	-34.0799	51.4966	39.3925	-7.89465	34.9251	14.1121	-48.6751	23.4323	20.2318	-18.7445	54.0523	26.9681	-7.16065	40.0751	-2.22218	-36.0656	27.4769	10.6867	-10.5187	55.4667	15.1635	4.90922	97.3799	-0.291982	-32.4743	115.256	1.50935	-0.332523	110.85	38.7417	-17.9381	
126	1.05	89.7284	64.6609	3.49756	67.5456	82.7901	-14.6626	42.0011	84.9013	-40.6521	23.8281	75.0699	-55.7315	51.7301	53.5807	-65.9158	22.3962	51.9766	-48.7768	42.8894	52.8399	-19.3855	39.7882	28.9127	-61.9108	17.695	34.6618	-34.02	47.038	36.2552	-7.1447	32.1447	10.5223	-47.2746	21.6879	20.3104	-20.6972	55.4696	22.7948	-4.2378	38.0068	-5.15759	-35.9405	26.7793	7.05397	-6.62891	55.458	14.88	6.64885	96.774	3.38295	-32.6204	115.718	-0.783663	-0.194867	111.365	38.1292	-19.2539	
127	1.05833	88.1895	65.9568	3.83136	63.3076	79.3311	-14.8867	37.1212	82.8853	-35.7037	18.2459	73.5745	-54.3334	48.7649	50.6822	-64.5856	20.5384	55.7242	-47.6229	42.7388	55.066	-17.7428	41.134	32.5141	-62.0979	16.9505	33.5587	-33.1882	46.8134	38.0439	-6.20926	33.5851	14.4211	-47.8528	21.7259	20.0359	-16.8115	52.7462	22.1872	-3.21499	32.7599	-4.17682	-35.3293	28.1818	9.64371	-4.80707	55.9453	13.2586	9.36672	94.1122	1.78743	-32.6025	114.945	3.66653	2.87338	108.992	36.1072	-14.5466	
128	1.06667	86.9151	69.3709	6.92334	60.3737	81.718	-9.13186	32.638	81.3349	-33.5359	11.8718	71.9311	-53.9662	47.3248	55.6748	-64.2037	20.4921	53.4032	-49.7868	39.3631	52.381	-18.3377	42.9839	32.3778	-60.8568	14.8915	37.5323	-34.1596	44.8834	39.7902	-5.40301	31.1786	15.986	-47.5237	20.4609	22.2627	-17.6259	54.2632	25.9687	-3.78083	32.744	-4.15218	-33.9116	25.8358	10.8573	-7.64944	52.7541	16.4186	6.24419	92.3525	3.27538	-32.828	114.807	1.29494	-0.535232	108.211	37.5968	-13.6301	
129	1.075	83.9017	66.4184	4.99126	57.2507	81.7023	-10.958	28.734	84.1659	-32.6266	9.03014	71.5948	-49.5419	43.8443	53.5977	-63.8014	18.9119	56.5691	-47.5749	39.2202	52.8894	-17.0877	37.9937	34.4747	-61.914	13.686	35.0743	-33.7411	42.3146	42.4033	-4.6542	32.7544	15.4894	-47.5954	17.7712	20.5062	-21.1752	52.3652	25.1228	-2.26301	37.7259	-1.24015	-35.9613	27.2243	8.99042	-3.13889	55.48	12.5587	9.33165	93.3103	5.20845	-31.4608	113.617	5.19123	2.22905	108.417	40.5502	-15.5549	
130	1.08333	85.5027	66.3207	7.18634	55.3964	84.7076	-11.438	28.1962	81.1115	-33.1079	10.1594	66.4571	-47.0789	46.0705	54.6241	-62.6715	18.9346	57.7188	-46.6861	38.406	51.1376	-16.1048	36.5025	29.933	-59.7705	14.1751	35.8855	-32.2298	38.6057	39.9247	-4.22166	31.5272	13.2467	-46.4077	18.6461	21.735	-18.7781	52.0531	26.8503	-1.42498	34.9717	0.672799	-34.337	25.1046	8.44302	-6.05163	55.5873	15.8086	10.0692	93.8656	7.17197	-31.764	112.211	0.723489	1.1753	106.341	38.8552	-15.7237	
131	1.09167	86.0087	66.0291	4.4142	60.2835	85.1137	-7.14814	29.1848	85.1833	-32.6941	12.516	69.0946	-46.1785	47.5793	56.2761	-61.6522	17.6712	55.642	-46.7256	37.4849	57.1355	-15.7001	40.8874	29.5512	-58.4519	13.8265	35.7675	-30.871	41.5501	37.5637	-2.22816	33.2295	11.6036	-45.7497	17.2384	21.0743	-19.2217	51.1179	24.7717	-1.75444	34.3529	-2.57298	-33.9131	26.7564	11.0717	-3.54175	54.013	14.7341	10.5001	93.3746	5.81921	-28.2023	112.831	2.0434	-2.71067	106.347	37.777	-17.9633	
132	1.1	91.9672	68.9828	8.32658	68.1086	88.0212	-9.81921	39.1122	89.04	-36.783	22.7357	68.8379	-47.4313	48.2534	48.0722	-60.2516	19.5915	50.2843	-45.5497	42.7387	57.46	-13.3828	41.4528	30.6972	-60.197	13.6281	33.9277	-31.9935	39.4737	36.717	-3.88618	32.0817	10.5719	-45.2493	16.5337	20.2524	-21.465	50.3393	27.0908	-3.64921	36.6748	-6.07458	-32.9052	27.0701	11.9711	-3.32462	54.5793	15.0873	5.61838	95.2046	0.46744	-27.8494	113.498	-2.19401	3.00649	111.002	36.5694	-13.9085	
